<?xml version="1.0" standalone="no"?>
<!DOCTYPE svg PUBLIC "-//W3C//DTD SVG 20010904//EN"
 "http://www.w3.org/TR/2001/REC-SVG-20010904/DTD/svg10.dtd">
<svg version="1.0" xmlns="http://www.w3.org/2000/svg"
 width="134.000000pt" height="134.000000pt" viewBox="0 0 134.000000 134.000000"
 preserveAspectRatio="xMidYMid meet">

<g transform="translate(0.000000,134.000000) scale(0.100000,-0.100000)"
fill="#000000" stroke="none">
<path d="M603 1291 c-25 -16 -47 -51 -104 -170 -40 -82 -79 -153 -88 -156 -9
-4 -88 -18 -176 -31 -88 -14 -170 -31 -182 -39 -35 -24 -56 -72 -50 -118 5
-35 21 -56 133 -168 l128 -128 -27 -158 c-15 -87 -27 -168 -27 -181 0 -36 27
-80 60 -97 55 -29 91 -20 242 60 78 41 149 75 158 75 9 0 80 -34 158 -75 151
-80 187 -89 242 -60 33 17 60 61 60 97 0 13 -12 94 -27 181 l-27 158 128 128
c112 112 128 133 133 168 6 46 -15 94 -51 118 -12 8 -94 26 -182 39 -87 13
-166 27 -175 31 -9 3 -48 74 -88 156 -79 163 -102 189 -171 189 -19 0 -49 -9
-67 -19z m177 -221 c61 -122 86 -163 108 -174 15 -8 95 -24 177 -35 83 -12
160 -26 173 -31 45 -19 28 -49 -103 -180 -81 -81 -126 -134 -131 -152 -3 -16
6 -98 21 -183 30 -172 29 -205 -11 -205 -15 0 -90 34 -169 75 -92 49 -154 75
-175 75 -21 0 -82 -26 -175 -75 -155 -82 -191 -90 -201 -50 -3 14 6 95 21 180
15 85 24 167 21 183 -5 18 -50 71 -131 152 -131 131 -148 161 -102 180 12 5
89 19 172 31 82 11 162 27 177 35 22 11 47 52 108 174 77 153 81 160 110 160
29 0 33 -7 110 -160z"/>
</g>
</svg>
